<mxfile host="Electron" modified="2023-11-12T14:57:58.355Z" agent="Mozilla/5.0 (Macintosh; Intel Mac OS X 10_15_7) AppleWebKit/537.36 (KHTML, like Gecko) draw.io/22.0.0 Chrome/114.0.5735.289 Electron/25.8.3 Safari/537.36" etag="Lg4vzfrRSMDaWV4r6EiW" version="22.0.0" type="device">
  <diagram name="Page-1" id="XmS7Ugy13RzP0O75IqJr">
    <mxGraphModel dx="658" dy="482" grid="1" gridSize="10" guides="1" tooltips="1" connect="1" arrows="1" fold="1" page="1" pageScale="1" pageWidth="850" pageHeight="1100" math="1" shadow="0">
      <root>
        <mxCell id="0" />
        <mxCell id="1" parent="0" />
        <mxCell id="HPEhnriXBVh_QUnAAiju-14" style="edgeStyle=orthogonalEdgeStyle;rounded=0;orthogonalLoop=1;jettySize=auto;html=1;exitX=0.5;exitY=0;exitDx=0;exitDy=0;entryX=0;entryY=0.5;entryDx=0;entryDy=0;fontSize=14;endArrow=none;endFill=0;" edge="1" parent="1" source="HPEhnriXBVh_QUnAAiju-1" target="HPEhnriXBVh_QUnAAiju-13">
          <mxGeometry relative="1" as="geometry" />
        </mxCell>
        <mxCell id="HPEhnriXBVh_QUnAAiju-17" style="edgeStyle=orthogonalEdgeStyle;rounded=0;orthogonalLoop=1;jettySize=auto;html=1;exitX=0.5;exitY=1;exitDx=0;exitDy=0;entryX=0;entryY=0.5;entryDx=0;entryDy=0;fontSize=14;endArrow=none;endFill=0;" edge="1" parent="1" source="HPEhnriXBVh_QUnAAiju-1" target="HPEhnriXBVh_QUnAAiju-16">
          <mxGeometry relative="1" as="geometry" />
        </mxCell>
        <mxCell id="HPEhnriXBVh_QUnAAiju-1" value="$$S$$" style="rounded=0;whiteSpace=wrap;html=1;fontSize=14;" vertex="1" parent="1">
          <mxGeometry x="40" y="160" width="40" height="40" as="geometry" />
        </mxCell>
        <mxCell id="HPEhnriXBVh_QUnAAiju-7" value="$$\gamma I_A$$" style="edgeStyle=orthogonalEdgeStyle;rounded=0;orthogonalLoop=1;jettySize=auto;html=1;exitX=1;exitY=0.5;exitDx=0;exitDy=0;entryX=0.5;entryY=0;entryDx=0;entryDy=0;fontSize=14;" edge="1" parent="1" source="HPEhnriXBVh_QUnAAiju-2" target="HPEhnriXBVh_QUnAAiju-4">
          <mxGeometry relative="1" as="geometry" />
        </mxCell>
        <mxCell id="HPEhnriXBVh_QUnAAiju-25" style="edgeStyle=orthogonalEdgeStyle;rounded=0;orthogonalLoop=1;jettySize=auto;html=1;exitX=0.5;exitY=0;exitDx=0;exitDy=0;entryX=0.5;entryY=0;entryDx=0;entryDy=0;dashed=1;fontSize=14;" edge="1" parent="1" source="HPEhnriXBVh_QUnAAiju-2" target="HPEhnriXBVh_QUnAAiju-13">
          <mxGeometry relative="1" as="geometry">
            <Array as="points">
              <mxPoint x="220" y="80" />
              <mxPoint x="140" y="80" />
            </Array>
          </mxGeometry>
        </mxCell>
        <mxCell id="HPEhnriXBVh_QUnAAiju-2" value="$$I_A$$" style="rounded=0;whiteSpace=wrap;html=1;fontSize=14;" vertex="1" parent="1">
          <mxGeometry x="200" y="120" width="40" height="40" as="geometry" />
        </mxCell>
        <mxCell id="HPEhnriXBVh_QUnAAiju-8" value="$$\gamma I_B$$" style="edgeStyle=orthogonalEdgeStyle;rounded=0;orthogonalLoop=1;jettySize=auto;html=1;exitX=1;exitY=0.5;exitDx=0;exitDy=0;entryX=0.5;entryY=1;entryDx=0;entryDy=0;fontSize=14;" edge="1" parent="1" source="HPEhnriXBVh_QUnAAiju-3" target="HPEhnriXBVh_QUnAAiju-4">
          <mxGeometry relative="1" as="geometry" />
        </mxCell>
        <mxCell id="HPEhnriXBVh_QUnAAiju-24" style="edgeStyle=orthogonalEdgeStyle;rounded=0;orthogonalLoop=1;jettySize=auto;html=1;exitX=0.5;exitY=1;exitDx=0;exitDy=0;entryX=0.5;entryY=1;entryDx=0;entryDy=0;dashed=1;fontSize=14;" edge="1" parent="1" source="HPEhnriXBVh_QUnAAiju-3" target="HPEhnriXBVh_QUnAAiju-16">
          <mxGeometry relative="1" as="geometry">
            <Array as="points">
              <mxPoint x="220" y="280" />
              <mxPoint x="140" y="280" />
            </Array>
          </mxGeometry>
        </mxCell>
        <mxCell id="HPEhnriXBVh_QUnAAiju-3" value="$$I_B$$" style="rounded=0;whiteSpace=wrap;html=1;fontSize=14;" vertex="1" parent="1">
          <mxGeometry x="200" y="200" width="40" height="40" as="geometry" />
        </mxCell>
        <mxCell id="HPEhnriXBVh_QUnAAiju-4" value="$$R$$" style="rounded=0;whiteSpace=wrap;html=1;fontSize=14;" vertex="1" parent="1">
          <mxGeometry x="320" y="160" width="40" height="40" as="geometry" />
        </mxCell>
        <mxCell id="HPEhnriXBVh_QUnAAiju-15" style="edgeStyle=orthogonalEdgeStyle;rounded=0;orthogonalLoop=1;jettySize=auto;html=1;exitX=1;exitY=0.5;exitDx=0;exitDy=0;entryX=0;entryY=0.5;entryDx=0;entryDy=0;fontSize=14;" edge="1" parent="1" source="HPEhnriXBVh_QUnAAiju-13" target="HPEhnriXBVh_QUnAAiju-2">
          <mxGeometry relative="1" as="geometry" />
        </mxCell>
        <mxCell id="HPEhnriXBVh_QUnAAiju-13" value="$$\lambda_A S$$" style="rounded=0;whiteSpace=wrap;html=1;fillColor=none;strokeColor=none;fontSize=14;" vertex="1" parent="1">
          <mxGeometry x="120" y="120" width="40" height="40" as="geometry" />
        </mxCell>
        <mxCell id="HPEhnriXBVh_QUnAAiju-18" style="edgeStyle=orthogonalEdgeStyle;rounded=0;orthogonalLoop=1;jettySize=auto;html=1;exitX=1;exitY=0.5;exitDx=0;exitDy=0;entryX=0;entryY=0.5;entryDx=0;entryDy=0;fontSize=14;" edge="1" parent="1" source="HPEhnriXBVh_QUnAAiju-16" target="HPEhnriXBVh_QUnAAiju-3">
          <mxGeometry relative="1" as="geometry" />
        </mxCell>
        <mxCell id="HPEhnriXBVh_QUnAAiju-16" value="$$\lambda_BS$$" style="rounded=0;whiteSpace=wrap;html=1;fillColor=none;strokeColor=none;fontSize=14;" vertex="1" parent="1">
          <mxGeometry x="120" y="200" width="40" height="40" as="geometry" />
        </mxCell>
        <mxCell id="HPEhnriXBVh_QUnAAiju-21" value="&lt;meta charset=&quot;utf-8&quot; style=&quot;font-size: 14px;&quot;&gt;&lt;span style=&quot;color: rgb(0, 0, 0); font-family: Helvetica; font-size: 14px; font-style: normal; font-variant-ligatures: normal; font-variant-caps: normal; font-weight: 400; letter-spacing: normal; orphans: 2; text-align: center; text-indent: 0px; text-transform: none; widows: 2; word-spacing: 0px; -webkit-text-stroke-width: 0px; background-color: rgb(255, 255, 255); text-decoration-thickness: initial; text-decoration-style: initial; text-decoration-color: initial; float: none; display: inline !important;&quot;&gt;$$\lambda _B = \beta_B I_B / N$$&lt;/span&gt;" style="text;html=1;strokeColor=none;fillColor=none;align=center;verticalAlign=middle;whiteSpace=wrap;rounded=0;fontSize=14;" vertex="1" parent="1">
          <mxGeometry x="160" y="280" width="60" height="30" as="geometry" />
        </mxCell>
        <mxCell id="HPEhnriXBVh_QUnAAiju-22" value="&lt;meta charset=&quot;utf-8&quot; style=&quot;font-size: 14px;&quot;&gt;&lt;span style=&quot;color: rgb(0, 0, 0); font-family: Helvetica; font-size: 14px; font-style: normal; font-variant-ligatures: normal; font-variant-caps: normal; font-weight: 400; letter-spacing: normal; orphans: 2; text-align: center; text-indent: 0px; text-transform: none; widows: 2; word-spacing: 0px; -webkit-text-stroke-width: 0px; background-color: rgb(255, 255, 255); text-decoration-thickness: initial; text-decoration-style: initial; text-decoration-color: initial; float: none; display: inline !important;&quot;&gt;$$\lambda _A = \beta_A I_A / N$$&lt;/span&gt;" style="text;html=1;strokeColor=none;fillColor=none;align=center;verticalAlign=middle;whiteSpace=wrap;rounded=0;fontSize=14;" vertex="1" parent="1">
          <mxGeometry x="150" y="50" width="60" height="30" as="geometry" />
        </mxCell>
      </root>
    </mxGraphModel>
  </diagram>
</mxfile>
